Crispy Standard Black-MaxGrade-minXTRA.ufo
<glyph name="asterisk" format="2">
  <advance width="252"/>
  <unicode hex="002A"/>
  <outline>
    <contour>
      <point x="60" y="1331" type="line"/>
      <point x="124" y="1441" type="line"/>
      <point x="188" y="1330" type="line"/>
      <point x="288" y="1409" type="line"/>
      <point x="204" y="1494" type="line"/>
      <point x="269" y="1502" type="line"/>
      <point x="243" y="1569" type="line"/>
      <point x="177" y="1559" type="line"/>
      <point x="177" y="1616" type="line"/>
      <point x="71" y="1616" type="line"/>
      <point x="71" y="1559" type="line"/>
      <point x="2" y="1568" type="line"/>
      <point x="-23" y="1501" type="line"/>
      <point x="44" y="1494" type="line"/>
      <point x="-35" y="1410" type="line"/>
    </contour>
  </outline>
</glyph>
<glyph name="three" format="2">
  <advance width="1357"/>
  <unicode hex="0033"/>
  <outline>
    <contour>
      <point x="18" y="0" type="line" identifier="O9abUc1nmN"/>
      <point x="1339" y="0" type="line" identifier="kMJYMTfXCq"/>
      <point x="1339" y="983" type="line" identifier="su2XmdS8e8"/>
      <point x="1185" y="983" type="line" identifier="JQaOzDQqlF"/>
      <point x="1336" y="1262" type="line"/>
      <point x="1336" y="1600" type="line" identifier="xg8x2Ki40p"/>
      <point x="22" y="1600" type="line" identifier="pE1XSRiy68"/>
      <point x="22" y="1043" type="line" identifier="5lNstGRcSF"/>
      <point x="666" y="1043" type="line" identifier="AcE5xKDZfE"/>
      <point x="666" y="1225" type="line" identifier="7ogBYufWpl"/>
      <point x="692" y="1225" type="line" identifier="RHLvSX2Jv6"/>
      <point x="692" y="1215" type="line"/>
      <point x="589" y="983" type="line" identifier="iic1IBkDqp"/>
      <point x="151" y="982" type="line" identifier="lRLJEhXMlO"/>
      <point x="151" y="608" type="line" identifier="8aKgEELrVU"/>
      <point x="695" y="609" type="line" identifier="Dm8zjmbhNr"/>
      <point x="695" y="375" type="line" identifier="xv9CFHiFgB"/>
      <point x="662" y="375" type="line" identifier="YajKQV3MHP"/>
      <point x="662" y="661" type="line" identifier="36SchVkwze"/>
      <point x="18" y="661" type="line" identifier="tVui9PiOjA"/>
    </contour>
  </outline>
</glyph>
<glyph name="four" format="2">
  <advance width="1445"/>
  <unicode hex="0034"/>
  <outline>
    <contour>
      <point x="714" y="0" type="line"/>
      <point x="1358" y="0" type="line"/>
      <point x="1358" y="599" type="line"/>
      <point x="1424" y="599" type="line"/>
      <point x="1424" y="973" type="line"/>
      <point x="1358" y="973" type="line"/>
      <point x="1358" y="1600" type="line"/>
      <point x="714" y="1600" type="line"/>
      <point x="714" y="973" type="line"/>
      <point x="668" y="973" type="line"/>
      <point x="668" y="1119" type="line"/>
      <point x="755" y="1600" type="line"/>
      <point x="111" y="1600" type="line"/>
      <point x="24" y="1118" type="line"/>
      <point x="24" y="599" type="line"/>
      <point x="714" y="599" type="line"/>
    </contour>
  </outline>
</glyph>
<glyph name="B" format="2">
  <advance width="1379"/>
  <unicode hex="0042"/>
  <outline>
    <contour>
      <point x="28" y="0" type="line"/>
      <point x="1169" y="0" type="line"/>
      <point x="1377" y="435" type="line"/>
      <point x="1377" y="969" type="line"/>
      <point x="1165" y="969" type="line"/>
      <point x="1349" y="1250" type="line"/>
      <point x="1349" y="1600" type="line"/>
      <point x="28" y="1600" type="line"/>
    </contour>
    <contour>
      <point x="672" y="375" type="line"/>
      <point x="672" y="613" type="line"/>
      <point x="733" y="613" type="line"/>
      <point x="733" y="503" type="line"/>
      <point x="683" y="375" type="line"/>
    </contour>
    <contour>
      <point x="672" y="987" type="line"/>
      <point x="672" y="1225" type="line"/>
      <point x="705" y="1225" type="line"/>
      <point x="705" y="1292" type="line"/>
      <point x="540" y="987" type="line"/>
    </contour>
  </outline>
</glyph>
<glyph name="R" format="2">
  <advance width="1411"/>
  <unicode hex="0052"/>
  <outline>
    <contour>
      <point x="891" y="-57" type="line"/>
      <point x="1455" y="111" type="line"/>
      <point x="1225" y="631" type="line"/>
      <point x="574" y="631" type="line"/>
    </contour>
    <contour>
      <point x="25" y="0" type="line" identifier="EG08jqU5fb"/>
      <point x="669" y="0" type="line" identifier="osRzIFK2Cu"/>
      <point x="669" y="617" type="line" identifier="hIFVovVRwe"/>
      <point x="1361" y="617" type="line" identifier="Tt6D8zYZmU"/>
      <point x="1361" y="1600" type="line" identifier="6xW04auDFu"/>
      <point x="25" y="1600" type="line" identifier="eETO5GBD5v"/>
    </contour>
    <contour>
      <point x="669" y="992" type="line" identifier="PIBVN1PGv1"/>
      <point x="669" y="1225" type="line" identifier="IZIZQr2gYJ"/>
      <point x="717" y="1225" type="line" identifier="2c4LCF1E1R"/>
      <point x="717" y="992" type="line" identifier="1WCnzth1GX"/>
    </contour>
  </outline>
</glyph>
<glyph name="S" format="2">
  <advance width="1348"/>
  <unicode hex="0053"/>
  <outline>
    <contour>
      <point x="10" y="0" type="line" identifier="09VlJ0BjUX"/>
      <point x="1128" y="0" type="line" identifier="EagWihqFM8"/>
      <point x="1337" y="454" type="line"/>
      <point x="1337" y="999" type="line" identifier="KfNuQA7eZe"/>
      <point x="651" y="999" type="line" identifier="At364YZFEy"/>
      <point x="651" y="1094" type="line"/>
      <point x="684" y="1247" type="line"/>
      <point x="680" y="1247" type="line" identifier="3ZUkG35meB"/>
      <point x="680" y="1078" type="line" identifier="DTOJhFIl15"/>
      <point x="1324" y="1078" type="line" identifier="9KDcrfQ5Ui"/>
      <point x="1324" y="1600" type="line" identifier="SaF9ojRFrW"/>
      <point x="223" y="1600" type="line"/>
      <point x="15" y="1117" type="line"/>
      <point x="15" y="604" type="line" identifier="3sQ8t8BZ6b"/>
      <point x="692" y="604" type="line" identifier="yiV6OCBLHg"/>
      <point x="692" y="474" type="line"/>
      <point x="656" y="362" type="line" identifier="9kdl9SYsn8"/>
      <point x="654" y="362" type="line" identifier="yZDWuX8LLe"/>
      <point x="654" y="538" type="line" identifier="jYb9001DTm"/>
      <point x="10" y="538" type="line" identifier="ho4DrS0rdW"/>
    </contour>
  </outline>
</glyph>
<glyph name="U" format="2">
  <advance width="1373"/>
  <unicode hex="0055"/>
  <outline>
    <contour>
      <point x="18" y="0" type="line" smooth="yes"/>
      <point x="1355" y="0" type="line" smooth="yes"/>
      <point x="1355" y="1600" type="line" smooth="yes"/>
      <point x="711" y="1600" type="line" smooth="yes"/>
      <point x="711" y="375" type="line"/>
      <point x="662" y="375" type="line" smooth="yes"/>
      <point x="662" y="1600" type="line"/>
      <point x="18" y="1600" type="line" smooth="yes"/>
    </contour>
  </outline>
</glyph>
<glyph name="W" format="2">
  <advance width="2175"/>
  <unicode hex="0057"/>
  <outline>
    <contour>
      <point x="614" y="1600" type="line" identifier="0Dn4Xpf57M"/>
      <point x="551" y="132" type="line"/>
      <point x="642" y="132" type="line"/>
      <point x="491" y="1600" type="line"/>
      <point x="-49" y="1564" type="line"/>
      <point x="117" y="0" type="line"/>
      <point x="1056" y="0" type="line"/>
      <point x="1094" y="1257" type="line"/>
      <point x="1074" y="1257" type="line" identifier="9aKZPM0HPh"/>
      <point x="1119" y="0" type="line"/>
      <point x="2058" y="0" type="line"/>
      <point x="2224" y="1564" type="line"/>
      <point x="1684" y="1600" type="line"/>
      <point x="1518" y="132" type="line"/>
      <point x="1621" y="132" type="line"/>
      <point x="1553" y="1600" type="line" identifier="spdoeeCFft"/>
    </contour>
  </outline>
</glyph>
<glyph name="Z" format="2">
  <advance width="1349"/>
  <unicode hex="005A"/>
  <outline>
    <contour>
      <point x="15" y="0" type="line"/>
      <point x="1331" y="0" type="line" identifier="pzdvPTirLJ"/>
      <point x="1331" y="407" type="line" identifier="91SxUS0iwG"/>
      <point x="687" y="407" type="line"/>
      <point x="687" y="375" type="line"/>
      <point x="659" y="375" type="line"/>
      <point x="659" y="523" type="line"/>
      <point x="1336" y="1127" type="line" identifier="yyb1NCCI5w"/>
      <point x="1336" y="1600" type="line" identifier="5FogYRSgkk"/>
      <point x="41" y="1600" type="line" identifier="svlFvrau4c"/>
      <point x="40" y="1274" type="line" identifier="LQ9fBsTy9K"/>
      <point x="617" y="1274" type="line"/>
      <point x="618" y="1225" type="line"/>
      <point x="692" y="1225" type="line"/>
      <point x="692" y="1127" type="line"/>
      <point x="15" y="526" type="line" identifier="teVKnpBcVb"/>
    </contour>
  </outline>
</glyph>
<glyph name="backslash" format="2">
  <advance width="816"/>
  <unicode hex="005C"/>
  <outline>
    <contour>
      <point x="653" y="1650" type="line"/>
      <point x="9" y="1650" type="line"/>
      <point x="163" y="-50" type="line"/>
      <point x="807" y="-50" type="line"/>
    </contour>
  </outline>
</glyph>
<glyph name="bar" format="2">
  <advance width="701"/>
  <unicode hex="007C"/>
  <outline>
    <contour>
      <point x="28" y="-100" type="line"/>
      <point x="672" y="-100" type="line"/>
      <point x="672" y="1700" type="line"/>
      <point x="28" y="1700" type="line"/>
    </contour>
  </outline>
</glyph>
<glyph name="quoteleft" format="2">
  <advance width="668"/>
  <unicode hex="2018"/>
  <outline>
    <contour>
      <point x="655" y="1600" type="line"/>
      <point x="115" y="1600" type="line"/>
      <point x="9" y="1318" type="line"/>
      <point x="653" y="1318" type="line"/>
    </contour>
  </outline>
</glyph>
<glyph name="C.wide" format="2">
  <advance width="1420"/>
  <outline>
    <contour>
      <point x="16" y="0" type="line" identifier="7lPhzTnk2Z"/>
      <point x="1413" y="0" type="line" identifier="qJVLZGnkwh"/>
      <point x="1413" y="375" type="line" identifier="Y750RHTvDj"/>
      <point x="660" y="375" type="line" identifier="L2LsGnXiZ2"/>
      <point x="660" y="992" type="line" identifier="sUWsr03vF4"/>
      <point x="708" y="1225" type="line" identifier="dbOUe6OhxL"/>
      <point x="1412" y="1225" type="line" identifier="5BjRbcud80"/>
      <point x="1412" y="1600" type="line" identifier="9eJelv8BOw"/>
      <point x="143" y="1600" type="line" identifier="lfZev3ICaC"/>
      <point x="16" y="1030" type="line" identifier="V1EWIdPahq"/>
    </contour>
  </outline>
</glyph>
<glyph name="E.wide" format="2">
  <advance width="998"/>
  <outline>
    <contour>
      <point x="28" y="0" type="line" identifier="fZynkQ4XHB"/>
      <point x="1001" y="0" type="line" identifier="FAQNpgUPxV"/>
      <point x="1001" y="359" type="line" identifier="5cgTYOhATF"/>
      <point x="672" y="359" type="line" identifier="bWs42DaCgU"/>
      <point x="672" y="629" type="line" identifier="VtD2aADJmn"/>
      <point x="937" y="629" type="line" identifier="PpbsFdHAnS"/>
      <point x="937" y="972" type="line" identifier="8WuC5p8Ax5"/>
      <point x="672" y="972" type="line" identifier="m39IWn9ntA"/>
      <point x="672" y="1250" type="line" identifier="gQ21I4SHQg"/>
      <point x="1000" y="1250" type="line" identifier="eqNb2VTwYs"/>
      <point x="1000" y="1600" type="line" identifier="qYRmo14Il5"/>
      <point x="28" y="1600" type="line" identifier="HmJIcnLWfC"/>
    </contour>
  </outline>
</glyph>
<glyph name="I.narrow" format="2">
  <advance width="695"/>
  <outline>
    <contour>
      <point x="670" y="-1" type="line" identifier="1m237t4hyw"/>
      <point x="670" y="1601" type="line" identifier="v7N4yg5XNk"/>
      <point x="25" y="1601" type="line" identifier="zfocDyDTCM"/>
      <point x="25" y="-1" type="line" identifier="S4rO5KuHiL"/>
    </contour>
  </outline>
</glyph>
<glyph name="M.narrow" format="2">
  <advance width="2057"/>
  <outline>
    <contour>
      <point x="1388" y="0" type="line" smooth="yes" identifier="12Pyby1xY2"/>
      <point x="2032" y="0" type="line" smooth="yes" identifier="5LJg4ajoG6"/>
      <point x="2032" y="1600" type="line" smooth="yes" identifier="ZqTZqAY3uY"/>
      <point x="151" y="1600" type="line" smooth="yes" identifier="R4lklfJsHA"/>
      <point x="15" y="1128" type="line" smooth="yes" identifier="7g7f8Wu7K4"/>
      <point x="15" y="0" type="line" smooth="yes" identifier="RTOJW56qXy"/>
      <point x="659" y="0" type="line" identifier="JfSFAkWGZC"/>
      <point x="659" y="1001" type="line" smooth="yes" identifier="WWvGwSpq0g"/>
      <point x="706" y="1225" type="line" smooth="yes" identifier="oee4nqI8Wl"/>
      <point x="701" y="1225" type="line" identifier="Ljn2lpvpG8"/>
      <point x="701" y="0" type="line" smooth="yes"/>
      <point x="1345" y="0" type="line"/>
      <point x="1345" y="1225" type="line" identifier="GlWB6PG54Z"/>
      <point x="1388" y="1225" type="line" identifier="iqeTRv7HXg"/>
    </contour>
  </outline>
</glyph>
<glyph name="N.new" format="2">
  <advance width="1412"/>
  <outline>
    <contour>
      <point x="1387" y="0" type="line"/>
      <point x="1387" y="1600" type="line"/>
      <point x="743" y="1600" type="line"/>
      <point x="743" y="1597" type="line"/>
      <point x="965" y="1597" type="line"/>
      <point x="664" y="1599" type="line"/>
      <point x="669" y="1600" type="line"/>
      <point x="25" y="1600" type="line"/>
      <point x="25" y="0" type="line"/>
      <point x="669" y="0" type="line"/>
      <point x="669" y="842" type="line"/>
      <point x="431" y="842" type="line"/>
      <point x="743" y="963" type="line"/>
      <point x="743" y="0" type="line"/>
    </contour>
  </outline>
</glyph>
<glyph name="N.wide" format="2">
  <advance width="1873"/>
  <outline>
    <contour>
      <point x="37" y="0" type="line" identifier="CkwYPPvJLv"/>
      <point x="681" y="0" type="line" identifier="oHTJsN7drZ"/>
      <point x="681" y="1088" type="line" identifier="wfBbYd10Pm"/>
      <point x="692" y="1088" type="line" identifier="MEnBDHq6zU"/>
      <point x="1200" y="0" type="line" identifier="3Nbopwznvn"/>
      <point x="1836" y="0" type="line" identifier="uKfuudIUvA"/>
      <point x="1836" y="1600" type="line" identifier="XRdLFXiM4t"/>
      <point x="1192" y="1600" type="line" identifier="MUSJPjCIXg"/>
      <point x="1192" y="555" type="line" identifier="VILP20cFmq"/>
      <point x="1190" y="555" type="line" identifier="z5b04GDwRN"/>
      <point x="708" y="1600" type="line" identifier="LL64NQ6WBE"/>
      <point x="37" y="1600" type="line" identifier="dzUaaP1sjt"/>
    </contour>
  </outline>
</glyph>
<glyph name="R.wide" format="2">
  <advance width="1373"/>
  <outline>
    <contour>
      <point x="736" y="0" type="line"/>
      <point x="1380" y="0" type="line"/>
      <point x="1231" y="604" type="line"/>
      <point x="632" y="604" type="line"/>
    </contour>
    <contour>
      <point x="25" y="0" type="line" identifier="EG08jqU5fb"/>
      <point x="669" y="0" type="line" identifier="osRzIFK2Cu"/>
      <point x="669" y="590" type="line" identifier="hIFVovVRwe"/>
      <point x="1362" y="590" type="line" identifier="Tt6D8zYZmU"/>
      <point x="1362" y="1600" type="line" identifier="6xW04auDFu"/>
      <point x="25" y="1600" type="line" identifier="eETO5GBD5v"/>
    </contour>
    <contour>
      <point x="669" y="964" type="line" identifier="PIBVN1PGv1"/>
      <point x="669" y="1225" type="line" identifier="IZIZQr2gYJ"/>
      <point x="718" y="1225" type="line" identifier="2c4LCF1E1R"/>
      <point x="718" y="964" type="line" identifier="1WCnzth1GX"/>
    </contour>
  </outline>
</glyph>
<glyph name="S.wideskinny" format="2">
  <advance width="1365"/>
  <outline>
    <contour>
      <point x="15" y="0" type="line" identifier="09VlJ0BjUX"/>
      <point x="1216" y="0" type="line" identifier="EagWihqFM8"/>
      <point x="1350" y="454" type="line"/>
      <point x="1350" y="995" type="line" identifier="KfNuQA7eZe"/>
      <point x="654" y="995" type="line" identifier="At364YZFEy"/>
      <point x="654" y="1093" type="line"/>
      <point x="694" y="1246" type="line"/>
      <point x="1352" y="1246" type="line" identifier="3ZUkG35meB"/>
      <point x="1352" y="1599" type="line" identifier="SaF9ojRFrW"/>
      <point x="158" y="1599" type="line"/>
      <point x="17" y="1116" type="line"/>
      <point x="17" y="600" type="line" identifier="3sQ8t8BZ6b"/>
      <point x="705" y="600" type="line" identifier="yiV6OCBLHg"/>
      <point x="705" y="474" type="line"/>
      <point x="669" y="362" type="line" identifier="9kdl9SYsn8"/>
      <point x="15" y="362" type="line" identifier="yZDWuX8LLe"/>
    </contour>
  </outline>
</glyph>
<glyph name="Y.wideskinny" format="2">
  <advance width="1430"/>
  <outline>
    <contour>
      <point x="48" y="0" type="line"/>
      <point x="1405" y="0" type="line" identifier="oOtn61SmRY"/>
      <point x="1405" y="1600" type="line" identifier="8OglXgblhr"/>
      <point x="761" y="1600" type="line" identifier="db0bPhBdaU"/>
      <point x="761" y="987" type="line" identifier="MTAeavIVWY"/>
      <point x="667" y="987" type="line" identifier="lggLiivmLt"/>
      <point x="667" y="1600" type="line" identifier="UPaHY3UudR"/>
      <point x="23" y="1600" type="line" identifier="ZnCDQVdtyD"/>
      <point x="23" y="613" type="line" identifier="uqAJBjDIOT"/>
      <point x="761" y="613" type="line" identifier="7JgTtdb0jg"/>
      <point x="761" y="375" type="line"/>
      <point x="48" y="375" type="line"/>
    </contour>
  </outline>
</glyph>
<glyph name="Z.wide" format="2">
  <advance width="1437"/>
  <outline>
    <contour>
      <point x="15" y="0" type="line"/>
      <point x="1412" y="0" type="line" identifier="pzdvPTirLJ"/>
      <point x="1412" y="375" type="line"/>
      <point x="659" y="375" type="line"/>
      <point x="659" y="523" type="line"/>
      <point x="1421" y="1277" type="line" identifier="yyb1NCCI5w"/>
      <point x="1421" y="1600" type="line" identifier="5FogYRSgkk"/>
      <point x="19" y="1600" type="line" identifier="svlFvrau4c"/>
      <point x="19" y="1225" type="line"/>
      <point x="774" y="1225" type="line"/>
      <point x="774" y="1263" type="line"/>
      <point x="15" y="526" type="line" identifier="teVKnpBcVb"/>
    </contour>
  </outline>
</glyph>
<glyph name="five.wide" format="2">
  <advance width="1375"/>
  <outline>
    <contour>
      <point x="16" y="0" type="line" identifier="09VlJ0BjUX"/>
      <point x="1360" y="0" type="line" identifier="EagWihqFM8"/>
      <point x="1360" y="986" type="line" identifier="KfNuQA7eZe"/>
      <point x="659" y="986" type="line" identifier="At364YZFEy"/>
      <point x="659" y="1225" type="line" identifier="BcuLfvaQKC"/>
      <point x="1360" y="1225" type="line" identifier="3ZUkG35meB"/>
      <point x="1360" y="1600" type="line" identifier="SaF9ojRFrW"/>
      <point x="15" y="1600" type="line" identifier="F4sQEYelA8"/>
      <point x="15" y="611" type="line" identifier="3sQ8t8BZ6b"/>
      <point x="717" y="611" type="line" identifier="yiV6OCBLHg"/>
      <point x="717" y="375" type="line" identifier="9kdl9SYsn8"/>
      <point x="16" y="375" type="line" identifier="yZDWuX8LLe"/>
    </contour>
  </outline>
</glyph>
<glyph name="nine.wide" format="2">
  <advance width="1558"/>
  <outline>
    <contour>
      <point x="81" y="0" type="line" identifier="oGvEEuxnYv"/>
      <point x="1477" y="0" type="line" identifier="xR3pEHbMJx"/>
      <point x="1477" y="1600" type="line" identifier="uiw6aBUf4P"/>
      <point x="79" y="1600" type="line" identifier="jtYkxiUX6G"/>
      <point x="79" y="613" type="line" identifier="2G5L37c87I"/>
      <point x="833" y="613" type="line"/>
      <point x="833" y="375" type="line"/>
      <point x="81" y="375" type="line"/>
    </contour>
    <contour>
      <point x="723" y="987" type="line"/>
      <point x="723" y="1225" type="line"/>
      <point x="833" y="1225" type="line"/>
      <point x="833" y="987" type="line"/>
    </contour>
  </outline>
</glyph>
<glyph name="seven.alt" format="2">
  <advance width="1407"/>
  <outline>
    <contour>
      <point x="11" y="1600" type="line" identifier="jiO9eX9U07"/>
      <point x="1370" y="1600" type="line" identifier="wgpFs1yguc"/>
      <point x="1370" y="0" type="line" identifier="d5Di3vNzni"/>
      <point x="726" y="0" type="line" identifier="46RrD1WET2"/>
      <point x="726" y="1225" type="line" identifier="zFXsE8BUYG"/>
      <point x="655" y="1225" type="line" identifier="NQmE31PUns"/>
      <point x="655" y="790" type="line" identifier="qiXxY6YhCq"/>
      <point x="11" y="790" type="line" identifier="7exNZv1XSc"/>
    </contour>
  </outline>
</glyph>
<glyph name="two.wide" format="2">
  <advance width="1370"/>
  <outline>
    <contour>
      <point x="13" y="0" type="line"/>
      <point x="1351" y="0" type="line" identifier="pzdvPTirLJ"/>
      <point x="1350" y="375" type="line"/>
      <point x="657" y="375" type="line"/>
      <point x="657" y="599" type="line"/>
      <point x="1361" y="599" type="line" identifier="yyb1NCCI5w"/>
      <point x="1361" y="1600" type="line" identifier="5FogYRSgkk"/>
      <point x="27" y="1600" type="line" identifier="svlFvrau4c"/>
      <point x="27" y="1225" type="line"/>
      <point x="717" y="1225" type="line"/>
      <point x="717" y="973" type="line"/>
      <point x="13" y="973" type="line" identifier="teVKnpBcVb"/>
    </contour>
  </outline>
</glyph>
<glyph name="two.wideskinny" format="2">
  <advance width="1390"/>
  <outline>
    <contour>
      <point x="9" y="0" type="line"/>
      <point x="1371" y="0" type="line" identifier="pzdvPTirLJ"/>
      <point x="1370" y="375" type="line"/>
      <point x="653" y="375" type="line"/>
      <point x="653" y="599" type="line"/>
      <point x="1381" y="599" type="line" identifier="yyb1NCCI5w"/>
      <point x="1381" y="1600" type="line" identifier="5FogYRSgkk"/>
      <point x="16" y="1600" type="line" identifier="svlFvrau4c"/>
      <point x="16" y="1225" type="line"/>
      <point x="737" y="1225" type="line"/>
      <point x="737" y="973" type="line"/>
      <point x="9" y="973" type="line" identifier="teVKnpBcVb"/>
    </contour>
  </outline>
</glyph>
